Patient4_TMGait_0pt6_01_right_47_GRF.mot
version=1
nRows=71
nColumns=19
inDegrees=no
endheader
time	F1x	F1y	F1z	M1x	M1y	M1z	F2x	F2y	F2z	M2x	M2y	M2z	EC1x	EC1y	EC1z	EC2x	EC2y	EC2z
56.6	-16.6673	787.3504	51.3	-253.3542	-58.1958	795.6414	22.4929	-1.5308	4.3992	-1.17	-12.6384	-10.5861	-0.0592	0.0182	-0.0073	-0.0462	0.0165	0.9585
56.6124	-10.9468	774.2862	55.9783	-249.2655	-59.934	784.0676	15.167	-0.088662	2.8879	-0.34159	-8.457	-6.0807	-0.0592	0.0182	-0.0073	-0.0462	0.0165	0.9585
56.6247	-5.1213	760.0929	59.4021	-244.8461	-60.4182	769.8694	8.9229	1.2001	1.617	0.38215	-4.8999	-2.1738	-0.0592	0.0182	-0.0073	-0.0462	0.0165	0.9585
56.6371	0.39877	746.0902	61.5288	-240.5015	-59.7798	754.3386	4.0966	2.279	0.6558	0.96412	-2.1703	0.94973	-0.0592	0.0182	-0.0073	-0.0462	0.0165	0.9585
56.6494	5.3873	733.5658	62.4918	-236.6317	-58.2493	738.9762	0.74874	3.0898	0.0072663	1.39	-0.28953	3.1877	-0.0592	0.0182	-0.0073	-0.0462	0.0165	0.9585
56.6618	9.7139	723.5205	62.6622	-233.5431	-56.2259	725.1021	-1.3695	3.6738	-0.37304	1.6782	0.868	4.6894	-0.0592	0.0182	-0.0073	-0.0462	0.0165	0.9585
56.6741	13.3733	716.5491	62.3072	-231.4167	-53.9683	713.6264	-2.5006	4.004	-0.54566	1.8336	1.4551	5.5076	-0.0592	0.0182	-0.0073	-0.0462	0.0165	0.9585
56.6865	16.4214	712.7977	61.7816	-230.2894	-51.7916	704.972	-2.9827	4.0878	-0.57543	1.8658	1.654	5.7821	-0.0592	0.0182	-0.0073	-0.0462	0.0165	0.9585
56.6989	18.9592	712.0025	61.2393	-230.0759	-49.8102	699.0766	-3.0348	3.8627	-0.52051	1.7605	1.6097	5.5217	-0.0592	0.0182	-0.0073	-0.0462	0.0165	0.9585
56.7112	21.0872	713.5828	60.8769	-230.5862	-48.1737	695.5203	-2.8716	3.2599	-0.41731	1.491	1.4383	4.7293	-0.0592	0.0182	-0.0073	-0.0462	0.0165	0.9585
56.7236	22.9488	716.7957	60.7002	-231.5816	-46.8448	693.6583	-2.6117	2.1827	-0.29416	1.0156	1.2143	3.3425	-0.0592	0.0182	-0.0073	-0.0462	0.0165	0.9585
56.7359	24.6565	720.8718	60.7676	-232.8087	-45.8395	692.7968	-2.3122	0.53654	-0.16333	0.29033	0.96678	1.2863	-0.0592	0.0182	-0.0073	-0.0462	0.0165	0.9585
56.7483	26.339	725.1662	60.9982	-234.0532	-45.0445	692.3261	-2.0001	-1.7249	-0.032385	-0.71093	0.70862	-1.4594	-0.0592	0.0182	-0.0073	-0.0462	0.0165	0.9585
56.7606	28.0713	729.1793	61.3986	-235.1334	-44.4415	691.8068	-1.6228	-4.5829	0.088993	-1.9776	0.4339	-4.8662	-0.0592	0.0182	-0.0073	-0.0462	0.0165	0.9585
56.773	29.9206	732.542	61.8907	-235.9068	-43.9406	690.9048	-1.1596	-7.8062	0.18978	-3.4115	0.14147	-8.6506	-0.0592	0.0182	-0.0073	-0.0462	0.0165	0.9585
56.7854	31.8773	734.9424	62.4865	-236.2445	-43.5502	689.3685	-0.51494	-10.9271	0.24497	-4.8005	-0.17311	-12.2896	-0.0592	0.0182	-0.0073	-0.0462	0.0165	0.9585
56.7977	33.9552	736.0793	63.1249	-236.031	-43.205	686.9433	0.32418	-13.0247	0.21974	-5.7433	-0.48128	-14.7007	-0.0592	0.0182	-0.0073	-0.0462	0.0165	0.9585
56.8101	36.1238	735.6567	63.806	-235.1643	-42.9093	683.3914	1.4254	-12.7206	0.047698	-5.6215	-0.72855	-14.3133	-0.0592	0.0182	-0.0073	-0.0462	0.0165	0.9585
56.8224	38.3802	733.4091	64.4508	-233.5764	-42.5908	678.4734	2.7209	-8.0077	-0.34372	-3.5466	-0.80549	-8.7926	-0.0592	0.0182	-0.0073	-0.0462	0.0165	0.9585
56.8348	40.7151	729.1012	64.9831	-231.232	-42.1837	671.9705	4.1274	3.6299	-1.0441	1.6058	-0.55429	4.7431	-0.0592	0.0182	-0.0073	-0.0462	0.0165	0.9585
56.8471	43.1319	722.4831	65.2412	-228.112	-41.5461	663.6382	5.3419	25.1093	-2.1116	11.1302	0.23926	29.6784	-0.0592	0.0182	-0.0073	-0.0462	0.0165	0.9585
56.8595	45.6068	713.1388	65.0511	-224.1579	-40.5329	653.0705	5.9152	59.2162	-3.5814	26.275	1.8352	69.2207	-0.0592	0.0182	-0.0073	-0.0462	0.0165	0.9585
56.8719	48.0816	700.4026	64.1896	-219.2351	-38.9631	639.6487	5.1222	107.8753	-5.409	47.9009	4.5138	125.5933	-0.0592	0.0182	-0.0073	-0.0462	0.0165	0.9585
56.8842	50.4499	683.2288	62.4309	-213.0858	-36.6671	622.3912	2.0252	170.878	-7.4312	75.925	8.4971	198.5211	-0.0592	0.0182	-0.0073	-0.0462	0.0165	0.9585
56.8966	52.4598	660.2093	59.572	-205.3205	-33.5432	600.0408	-4.2322	244.4168	-9.2686	108.6615	13.6972	283.551	-0.0592	0.0182	-0.0073	-0.0462	0.0165	0.9585
56.9089	53.7706	629.7238	55.4848	-195.4621	-29.5942	571.1449	-13.3441	320.2704	-10.7464	142.4521	19.7218	371.0867	-0.0592	0.0182	-0.0073	-0.0462	0.0165	0.9585
56.9213	53.8859	590.5105	50.22	-183.1009	-25.0429	534.6063	-23.4062	388.223	-12.8157	172.7288	26.6806	449.1272	-0.0592	0.0182	-0.0073	-0.0462	0.0165	0.9585
56.9336	52.372	542.2929	44.0306	-168.0985	-20.2663	490.1782	-32.5852	442.1112	-15.9184	196.6998	34.1867	510.3474	-0.0592	0.0182	-0.0073	-0.0462	0.0165	0.9585
56.946	49.0976	486.203	37.3884	-150.7433	-15.7082	438.9316	-39.6455	481.5368	-19.5927	214.1709	41.2445	554.1236	-0.0592	0.0182	-0.0073	-0.0462	0.0165	0.9585
56.9584	44.2435	424.3506	30.8164	-131.6376	-11.7339	382.7631	-44.0952	509.7851	-23.5533	226.606	47.327	584.2691	-0.0592	0.0182	-0.0073	-0.0462	0.0165	0.9585
56.9707	38.0028	359.5375	24.7297	-111.6048	-8.614	324.1915	-46.0608	531.6706	-27.2052	236.1651	51.9104	606.3803	-0.0592	0.0182	-0.0073	-0.0462	0.0165	0.9585
56.9831	30.6475	294.9324	19.3525	-91.5997	-6.442	266.0249	-46.1149	551.6781	-30.4796	244.8426	55.1655	625.7398	-0.0592	0.0182	-0.0073	-0.0462	0.0165	0.9585
56.9954	22.5835	233.7417	14.7965	-72.6064	-5.187	211.1024	-44.9347	573.2509	-33.1792	254.1536	57.2427	646.3741	-0.0592	0.0182	-0.0073	-0.0462	0.0165	0.9585
57.0078	14.4296	178.6991	11.0531	-55.4835	-4.6437	161.7957	-43.2982	598.4106	-35.6488	264.9418	58.8589	670.7657	-0.0592	0.0182	-0.0073	-0.0462	0.0165	0.9585
57.0201	6.9404	131.5918	8.0989	-40.8047	-4.5566	119.6107	-41.811	627.6776	-38.0109	277.3872	60.4625	699.6447	-0.0592	0.0182	-0.0073	-0.0462	0.0165	0.9585
57.0325	0.7474	93.0272	5.8217	-28.7821	-4.626	85.033	-40.9658	660.2166	-40.6891	291.0577	62.7086	732.2476	-0.0592	0.0182	-0.0073	-0.0462	0.0165	0.9585
57.0449	-3.7684	62.6462	4.1293	-19.3174	-4.6537	57.7004	-41.0151	694.2385	-43.7792	305.127	65.8224	766.6619	-0.0592	0.0182	-0.0073	-0.0462	0.0165	0.9585
57.0572	-6.542	39.5836	2.86	-12.146	-4.4774	36.8761	-41.9843	727.539	-47.4288	318.6014	69.9407	800.4969	-0.0592	0.0182	-0.0073	-0.0462	0.0165	0.9585
57.0696	-7.6595	22.7671	1.9034	-6.9336	-4.0376	21.6244	-43.5869	757.9071	-51.3213	330.5259	74.5972	831.2866	-0.0592	0.0182	-0.0073	-0.0462	0.0165	0.9585
57.0819	-7.4035	11.1503	1.1547	-3.3482	-3.3355	11.0489	-45.4144	783.2572	-55.1315	340.0261	79.2395	856.7059	-0.0592	0.0182	-0.0073	-0.0462	0.0165	0.9585
57.0943	-6.195	3.7193	0.58676	-1.0692	-2.4857	4.2265	-47.0104	801.7297	-58.4054	346.3511	83.1825	874.6662	-0.0592	0.0182	-0.0073	-0.0462	0.0165	0.9585
57.1066	-4.6522	-0.42809	0.18469	0.19155	-1.6646	0.38281	-47.9567	811.8569	-60.9774	348.9236	86.055	883.5209	-0.0592	0.0182	-0.0073	-0.0462	0.0165	0.9585
57.119	-3.12	-2.2485	-0.052219	0.73261	-0.98493	-1.3552	-47.9706	812.8785	-62.6985	347.4852	87.5769	882.3901	-0.0592	0.0182	-0.0073	-0.0462	0.0165	0.9585
57.1314	-1.8307	-2.555	-0.17535	0.80767	-0.47503	-1.6934	-46.9099	805.0626	-63.622	342.2231	87.7454	871.5163	-0.0592	0.0182	-0.0073	-0.0462	0.0165	0.9585
57.1437	-0.82518	-2.0323	-0.20031	0.62523	-0.13982	-1.283	-44.8142	789.7978	-63.801	333.8095	86.6518	852.3655	-0.0592	0.0182	-0.0073	-0.0462	0.0165	0.9585
57.1561	-0.1301	-1.1425	-0.17424	0.32647	0.056311	-0.52664	-41.8417	769.3831	-63.3898	323.3075	84.5434	827.3775	-0.0592	0.0182	-0.0073	-0.0462	0.0165	0.9585
57.1684	0.3142	-0.20588	-0.11348	0.0089712	0.14633	0.28122	-38.2377	746.7473	-62.5003	312.0411	81.6667	799.6656	-0.0592	0.0182	-0.0073	-0.0462	0.0165	0.9585
57.1808	0.55316	0.62475	-0.05274	-0.27808	0.17591	1.0207	-34.2924	724.9698	-61.295	301.3881	78.3306	772.4955	-0.0592	0.0182	-0.0073	-0.0462	0.0165	0.9585
57.1931	0.64315	1.2883	0.0024514	-0.51108	0.16653	1.6371	-30.2986	706.8305	-59.8939	292.5809	74.7983	748.7922	-0.0592	0.0182	-0.0073	-0.0462	0.0165	0.9585
57.2055	0.64584	1.7815	0.036105	-0.6874	0.14872	2.1138	-26.49	694.4519	-58.4176	286.5491	71.3015	730.7506	-0.0592	0.0182	-0.0073	-0.0462	0.0165	0.9585
57.2179	0.58253	2.1467	0.056364	-0.81758	0.11953	2.4892	-22.9967	689.0862	-56.9384	283.8354	67.9737	719.6149	-0.0592	0.0182	-0.0073	-0.0462	0.0165	0.9585
57.2302	0.50188	2.4217	0.060896	-0.91383	0.094577	2.7644	-19.8197	691.0759	-55.511	284.574	64.8714	715.6675	-0.0592	0.0182	-0.0073	-0.0462	0.0165	0.9585
57.2426	0.38946	2.6568	0.057689	-0.98683	0.065015	2.9927	-16.8225	699.848	-54.1712	288.4944	61.9662	718.238	-0.0592	0.0182	-0.0073	-0.0462	0.0165	0.9585
57.2549	0.29637	2.8462	0.047975	-1.0362	0.040938	3.1338	-13.8059	714.0396	-52.9467	294.9754	59.1855	725.8824	-0.0592	0.0182	-0.0073	-0.0462	0.0165	0.9585
57.2673	0.17913	2.9703	0.037639	-1.056	0.0049406	3.1995	-10.5309	731.7047	-51.8566	303.138	56.4319	736.6148	-0.0592	0.0182	-0.0073	-0.0462	0.0165	0.9585
57.2796	0.071548	2.9578	0.027916	-1.028	-0.036943	3.0994	-6.785	750.6208	-50.9347	311.9758	53.6313	748.2355	-0.0592	0.0182	-0.0073	-0.0462	0.0165	0.9585
57.292	-0.07105	2.7497	0.02482	-0.93331	-0.10206	2.8139	-2.4616	768.611	-50.2108	320.4972	50.7483	758.6697	-0.0592	0.0182	-0.0073	-0.0462	0.0165	0.9585
57.3044	-0.21506	2.2356	0.027987	-0.74178	-0.18043	2.2073	2.3607	783.7893	-49.7152	327.8322	47.8291	766.2188	-0.0592	0.0182	-0.0073	-0.0462	0.0165	0.9585
57.3167	-0.38794	1.3459	0.045642	-0.42679	-0.27789	1.2053	7.4268	794.7009	-49.4787	333.2974	44.9985	769.6844	-0.0592	0.0182	-0.0073	-0.0462	0.0165	0.9585
57.3291	-0.53634	0.006275	0.074927	0.038286	-0.37252	-0.3078	12.4131	800.3595	-49.5148	336.4259	42.4034	768.3344	-0.0592	0.0182	-0.0073	-0.0462	0.0165	0.9585
57.3414	-0.63716	-1.8048	0.11489	0.66338	-0.44869	-2.3523	17.0287	800.3129	-49.8132	336.9966	40.1606	761.9251	-0.0592	0.0182	-0.0073	-0.0462	0.0165	0.9585
57.3538	-0.59352	-4.0179	0.15278	1.4245	-0.46342	-4.8638	21.123	794.6685	-50.3194	335.0499	38.2998	750.6735	-0.0592	0.0182	-0.0073	-0.0462	0.0165	0.9585
57.3661	-0.29363	-6.3988	0.17285	2.2417	-0.35926	-7.5828	24.5994	784.1153	-50.9568	330.8867	36.8026	735.3133	-0.0592	0.0182	-0.0073	-0.0462	0.0165	0.9585
57.3785	0.41297	-8.4668	0.13393	2.9472	-0.043862	-9.9627	27.4583	769.8464	-51.6655	325.0291	35.6336	716.9971	-0.0592	0.0182	-0.0073	-0.0462	0.0165	0.9585
57.3909	1.6964	-9.4233	0.0081875	3.2618	0.57303	-11.087	29.6983	753.4503	-52.4184	318.1575	34.7804	697.2447	-0.0592	0.0182	-0.0073	-0.0462	0.0165	0.9585
57.4032	3.7131	-8.0509	-0.25629	2.7626	1.5968	-9.5469	31.3741	736.6331	-53.2184	311.0007	34.2311	677.6435	-0.0592	0.0182	-0.0073	-0.0462	0.0165	0.9585
57.4156	6.5885	-2.72	-0.68195	0.88248	3.0935	-3.4829	32.5456	721	-54.0687	304.2332	33.9683	659.6788	-0.0592	0.0182	-0.0073	-0.0462	0.0165	0.9585
57.4279	10.3032	8.5936	-1.3027	-3.0802	5.0884	9.428	33.3072	707.7428	-54.9439	298.3538	33.9392	644.4289	-0.0592	0.0182	-0.0073	-0.0462	0.0165	0.9585
57.4403	14.6306	28.0461	-2.0962	-9.873	7.4769	31.649	33.7323	697.4192	-55.7783	293.5877	34.0602	632.397	-0.0592	0.0182	-0.0073	-0.0462	0.0165	0.9585
57.4526	18.9503	57.5361	-3.0143	-20.1518	9.9767	65.3879	33.9011	689.7431	-56.4462	289.8123	34.1881	623.3026	-0.0592	0.0182	-0.0073	-0.0462	0.0165	0.9585
57.465	22.1377	97.9347	-3.8996	-34.2172	12.0095	111.667	33.8841	683.5328	-56.7823	286.5416	34.1488	616.0454	-0.0592	0.0182	-0.0073	-0.0462	0.0165	0.9585
